# xmcd
#
# Track frame offsets: 
#        150
#        44147
#        88850
#        116947
#        143892
#        188235
#        241895
#        267500
#        284082
#
# Disc length: 4366 seconds
#
# Revision: 1
# Processed by: cddbd v1.5.2PL0 Copyright (c) Steve Scherf et al.
# Submitted via: ExactAudioCopy v0.99pb5
#
DISCID=95110c09
DTITLE=Bruno Walter and Columbia Symphony Orchestra - The Edition [CD03)
DTITLE=Various Artist - Beethoven - Symphonies Nos.4 and 6
DYEAR=1958
DGENRE=Classical
TTITLE0=Symphony No.4 in B flat major, op.60 - I. Adagio - Allegro viv
TTITLE0=ace
TTITLE1=Symphony No.4 in B flat major, op.60 - II. Adagio
TTITLE2=Symphony No.4 in B flat major, op.60 - III. Allegro vivace
TTITLE3=Symphony No.4 in B flat major, op.60 - IV. Allegro ma non trop
TTITLE3=po
TTITLE4=Symphony No.6 in F major, op.68 "Pastoral" - I. Allegro ma non
TTITLE4=troppo
TTITLE5=Symphony No.6 in F major, op.68 "Pastoral" - II. Andante molto
TTITLE5=moto
TTITLE6=Symphony No.6 in F major, op.68 "Pastoral" - III. Allegro
TTITLE7=Symphony No.6 in F major, op.68 "Pastoral" - IV. Allegro
TTITLE8=Symphony No.6 in F major, op.68 "Pastoral" - V. Allegretto
EXTD=
EXTT0=
EXTT1=
EXTT2=
EXTT3=
EXTT4=
EXTT5=
EXTT6=
EXTT7=
EXTT8=
PLAYORDER=
